<svg width="1366" height="768" viewBox="0 0 1366 768" fill="none" xmlns="http://www.w3.org/2000/svg">
<path d="M1645.06 778.872C1223.52 582.853 1369.96 464.066 1132.11 459.245C1060.95 457.802 1015.5 468.509 959.293 508.522C889.039 558.538 564.114 856.49 261.994 864.159C483.1 1008.67 1069.26 1193.92 1645.06 778.872Z" fill="#E0D7EF"/>
<path d="M1191.37 910.963C884.488 1280.02 111.874 1138.54 -5.10416 488.737C664.456 430.834 252.436 953.074 1191.37 910.963C1244.06 858.764 1301.73 748.593 1341.87 662.786C1297.81 626.282 1246.06 569.258 1224.78 544.177C1295.13 509.25 1367.17 528.907 1393.12 545.494C1393.07 547.687 1370.3 628.442 1348.77 668.387C1346.5 666.582 1344.19 664.713 1341.87 662.786C1301.73 748.593 1244.06 858.764 1191.37 910.963Z" fill="#E0D7EF"/>
<path d="M102.943 771.474C294.806 639.682 402.214 526.073 971.542 888.574C1039.4 796.965 1059.17 709.682 1089.44 669.047C1142.06 598.388 1185.29 562.621 1225.66 544.58C1232.78 541.399 1240.19 538.825 1247.78 536.777C1314.37 517.013 1372.54 532.509 1394.63 544.66C1394.53 549.287 1388.45 566.654 1380.32 587.72C1370.05 616.193 1357.02 648.606 1344.38 674.215C1238.53 907.524 1050.98 1100.34 691.517 1093.05C411.616 1089.93 190.862 900.709 102.943 771.474Z" fill="#B198D7"/>
<path d="M457.104 649.977C389.665 746.389 189.477 787.013 111.869 782.181C182.545 899.319 406.004 1107.09 703.903 1118.92C927.789 1127.81 1085.51 1022.45 1198.39 907.115C576.947 926.824 466.213 702.854 457.104 649.977Z" fill="#845CC0"/>
<rect x="1366" y="768" width="1366" height="768" transform="rotate(180 1366 768)" fill="url(#paint0_linear_1_38)"/>
<defs>
<linearGradient id="paint0_linear_1_38" x1="2049" y1="748.789" x2="2049" y2="1562.74" gradientUnits="userSpaceOnUse">
<stop offset="0.00179212" stop-color="white" stop-opacity="0.69"/>
<stop offset="1" stop-color="#BABABA" stop-opacity="0"/>
<stop offset="1" stop-color="#CACACA" stop-opacity="0.11"/>
</linearGradient>
</defs>
</svg>
